<?xml version="1.0" encoding="UTF-8" standalone="no"?>
<svg
   viewBox="0 0 283.81906 284.77057"
   fill="none"
   version="1.1"
   id="svg13"
   sodipodi:docname="network.svg"
   width="283.81906"
   height="284.77057"
   inkscape:version="1.4.4 (dcaf3e7, 2026-05-05)"
   xmlns:inkscape="http://www.inkscape.org/namespaces/inkscape"
   xmlns:sodipodi="http://sodipodi.sourceforge.net/DTD/sodipodi-0.dtd"
   xmlns="http://www.w3.org/2000/svg"
   xmlns:svg="http://www.w3.org/2000/svg">
  <sodipodi:namedview
     id="namedview13"
     pagecolor="#ffffff"
     bordercolor="#000000"
     borderopacity="0.25"
     inkscape:showpageshadow="2"
     inkscape:pageopacity="0.0"
     inkscape:pagecheckerboard="0"
     inkscape:deskcolor="#d1d1d1"
     inkscape:zoom="1.625"
     inkscape:cx="141.23077"
     inkscape:cy="143.07692"
     inkscape:window-width="1440"
     inkscape:window-height="829"
     inkscape:window-x="-8"
     inkscape:window-y="-8"
     inkscape:window-maximized="1"
     inkscape:current-layer="svg13" />
  <defs
     id="defs2">
    <linearGradient
       id="globeFill"
       x1="80"
       y1="70"
       x2="270"
       y2="290"
       gradientUnits="userSpaceOnUse"
       gradientTransform="translate(-38.674085,-37.17708)">
      <stop
         offset="0"
         stop-color="#DDE3FF"
         id="stop1" />
      <stop
         offset="1"
         stop-color="#C6CEFA"
         id="stop2" />
    </linearGradient>
  </defs>
  <!-- Soft inner glow -->
  <circle
     cx="141.32591"
     cy="142.82292"
     r="119"
     fill="#dce2ff"
     opacity="0.55"
     id="circle2" />
  <!-- Globe surface -->
  <circle
     cx="141.32591"
     cy="142.82292"
     r="105"
     fill="url(#globeFill)"
     id="circle3"
     style="fill:url(#globeFill)" />
  <!-- Globe outer boundary -->
  <circle
     cx="141.32591"
     cy="142.82292"
     r="105"
     stroke="#2947d1"
     stroke-width="7"
     stroke-linecap="round"
     id="circle4" />
  <!-- Equator -->
  <path
     d="M 36.325915,142.82292 H 246.32591"
     stroke="#2947d1"
     stroke-width="7"
     stroke-linecap="round"
     id="path4" />
  <!-- Longitude: center -->
  <path
     d="m 141.32591,37.82292 c 0,0 0,37 0,105 0,68 0,105 0,105"
     stroke="#2947d1"
     stroke-width="7"
     stroke-linecap="round"
     id="path5" />
  <!-- Longitude: left/right curved meridians -->
  <path
     d="m 141.32591,37.82292 c -32,21 -44.999995,57 -44.999995,105 0,48 12.999995,84 44.999995,105"
     stroke="#2947d1"
     stroke-width="7"
     stroke-linecap="round"
     id="path6" />
  <path
     d="m 141.32591,37.82292 c 32,21 45,57 45,105 0,48 -13,84 -45,105"
     stroke="#2947d1"
     stroke-width="7"
     stroke-linecap="round"
     id="path7" />
  <!-- Latitude: upper -->
  <path
     d="m 52.325915,74.82292 c 28,14 56.999995,20 88.999995,20 32,0 61,-6 89,-20"
     stroke="#2947d1"
     stroke-width="7"
     stroke-linecap="round"
     id="path8" />
  <!-- Latitude: lower -->
  <path
     d="m 52.325915,210.82292 c 28,-14 56.999995,-20 88.999995,-20 32,0 61,6 89,20"
     stroke="#2947d1"
     stroke-width="7"
     stroke-linecap="round"
     id="path9" />
  <!-- Outer orbit ring, intentionally broken -->
  <path
     d="m 189.32591,11.82292 c -23,-7.9999996 -47,-9.9999996 -71,-6.9999996 C 64.325915,10.82292 22.325915,42.82292 9.3259148,89.82292 c -9.00000002,32 -8,65 6.0000002,93"
     stroke="#2947d1"
     stroke-width="7"
     stroke-linecap="round"
     id="path10" />
  <path
     d="m 35.325915,230.82292 c 25,28 63,46 103.999995,50 51,4 96,-19 121,-58 20,-31 25,-67 15,-100"
     stroke="#2947d1"
     stroke-width="7"
     stroke-linecap="round"
     id="path11" />
  <path
     d="m 253.32591,63.82292 c -6,-11 -13,-20 -22,-29"
     stroke="#2947d1"
     stroke-width="7"
     stroke-linecap="round"
     id="path12" />
  <path
     d="m 216.32591,25.82292 c -3,-2 -5,-3 -7,-4"
     stroke="#2947d1"
     stroke-width="7"
     stroke-linecap="round"
     id="path13" />
</svg>
